<svg width="172" height="29" viewBox="0 0 172 29" fill="none" xmlns="http://www.w3.org/2000/svg">
<path d="M9.34375 14.5H31.0938" stroke="url(#paint0_linear_1_59)" stroke-width="4" stroke-linecap="round"/>
<path opacity="0.6" d="M9.34375 14.5L20.2188 3.62503" stroke="#FF0082" stroke-width="2.85714" stroke-linecap="round"/>
<path opacity="0.6" d="M9.34375 14.5L20.2188 25.375" stroke="#009B50" stroke-width="2.85714" stroke-linecap="round"/>
<path opacity="0.6" d="M31.0938 14.5L20.2188 3.62503" stroke="#FF0082" stroke-width="2.85714" stroke-linecap="round"/>
<path opacity="0.6" d="M31.0938 14.5L20.2188 25.375" stroke="#009B50" stroke-width="2.85714" stroke-linecap="round"/>
<path opacity="0.15" d="M9.34375 20.8438C12.8473 20.8438 15.6875 18.0036 15.6875 14.5C15.6875 10.9965 12.8473 8.15628 9.34375 8.15628C5.84019 8.15628 3 10.9965 3 14.5C3 18.0036 5.84019 20.8438 9.34375 20.8438Z" fill="#3B82F6"/>
<path d="M9.34372 19.4844C12.0965 19.4844 14.3281 17.2528 14.3281 14.5C14.3281 11.7472 12.0965 9.51562 9.34372 9.51562C6.59093 9.51562 4.35934 11.7472 4.35934 14.5C4.35934 17.2528 6.59093 19.4844 9.34372 19.4844Z" fill="#3B82F6"/>
<path opacity="0.15" d="M31.0938 20.8438C34.5973 20.8438 37.4375 18.0036 37.4375 14.5C37.4375 10.9965 34.5973 8.15628 31.0938 8.15628C27.5902 8.15628 24.75 10.9965 24.75 14.5C24.75 18.0036 27.5902 20.8438 31.0938 20.8438Z" fill="#0EA5E9"/>
<path d="M31.0938 19.4844C33.8466 19.4844 36.0781 17.2528 36.0781 14.5C36.0781 11.7472 33.8466 9.51562 31.0938 9.51562C28.341 9.51562 26.1094 11.7472 26.1094 14.5C26.1094 17.2528 28.341 19.4844 31.0938 19.4844Z" fill="#0EA5E9"/>
<path opacity="0.85" d="M20.2188 7.25C22.2208 7.25 23.8438 5.62703 23.8438 3.625C23.8438 1.62297 22.2208 0 20.2188 0C18.2167 0 16.5938 1.62297 16.5938 3.625C16.5938 5.62703 18.2167 7.25 20.2188 7.25Z" fill="#FF0082"/>
<path opacity="0.85" d="M20.2188 29C22.2208 29 23.8438 27.377 23.8438 25.375C23.8438 23.373 22.2208 21.75 20.2188 21.75C18.2167 21.75 16.5938 23.373 16.5938 25.375C16.5938 27.377 18.2167 29 20.2188 29Z" fill="#009B50"/>
<path d="M69.1078 22.5307C68.1212 22.5307 67.2276 22.277 66.4271 21.7696C65.6322 21.2565 65.0007 20.5039 64.5328 19.5116C64.0705 18.5137 63.8393 17.2903 63.8393 15.8414C63.8393 14.3531 64.0789 13.1156 64.5582 12.129C65.0374 11.1367 65.6744 10.3953 66.4694 9.90486C67.2699 9.40874 68.1466 9.16068 69.0994 9.16068C69.8267 9.16068 70.4327 9.28471 70.9176 9.53277C71.408 9.77519 71.8027 10.0796 72.1015 10.4461C72.4059 10.8069 72.6371 11.1621 72.7949 11.5116H72.9049V5H76.499V22.3192H72.9472V20.2389H72.7949C72.6258 20.5997 72.3862 20.9577 72.0761 21.3129C71.7717 21.6624 71.3742 21.9528 70.8837 22.1839C70.3989 22.4151 69.8069 22.5307 69.1078 22.5307ZM70.2495 19.6638C70.8302 19.6638 71.3207 19.506 71.7209 19.1903C72.1269 18.8689 72.4369 18.4207 72.6512 17.8457C72.8711 17.2706 72.981 16.5969 72.981 15.8245C72.981 15.0521 72.8739 14.3813 72.6596 13.8118C72.4454 13.2424 72.1353 12.8027 71.7294 12.4926C71.3235 12.1825 70.8302 12.0275 70.2495 12.0275C69.6575 12.0275 69.1586 12.1882 68.7527 12.5095C68.3467 12.8309 68.0395 13.2763 67.8309 13.8457C67.6223 14.4151 67.518 15.0747 67.518 15.8245C67.518 16.58 67.6223 17.2481 67.8309 17.8287C68.0451 18.4038 68.3524 18.8548 68.7527 19.1818C69.1586 19.5032 69.6575 19.6638 70.2495 19.6638Z" fill="#0F172A"/>
<path d="M54.2114 22.5645C53.3827 22.5645 52.6441 22.4207 51.9958 22.1332C51.3474 21.84 50.8344 21.4088 50.4567 20.8393C50.0846 20.2643 49.8985 19.5483 49.8985 18.6913C49.8985 17.9697 50.031 17.3636 50.296 16.8732C50.561 16.3827 50.9218 15.988 51.3784 15.6892C51.8351 15.3904 52.3538 15.1649 52.9345 15.0127C53.5208 14.8605 54.1353 14.7534 54.778 14.6913C55.5335 14.6124 56.1424 14.5391 56.6047 14.4715C57.067 14.3982 57.4024 14.2911 57.611 14.1501C57.8196 14.0092 57.9239 13.8006 57.9239 13.5243V13.4736C57.9239 12.938 57.7548 12.5236 57.4165 12.2305C57.0839 11.9373 56.6103 11.7907 55.9958 11.7907C55.3474 11.7907 54.8316 11.9345 54.4482 12.222C54.0648 12.5039 53.8111 12.8591 53.6871 13.2875L50.3552 13.0169C50.5243 12.2276 50.857 11.5455 51.3531 10.9704C51.8492 10.3897 52.4891 9.94434 53.2727 9.63426C54.062 9.31855 54.9753 9.16069 56.0127 9.16069C56.7343 9.16069 57.425 9.24526 58.0846 9.41439C58.7498 9.58352 59.339 9.84568 59.852 10.2009C60.3707 10.556 60.7794 11.0127 61.0782 11.5708C61.377 12.1233 61.5264 12.7858 61.5264 13.5582V22.3193H58.1099V20.518H58.0085C57.7999 20.9239 57.5208 21.2819 57.1713 21.592C56.8217 21.8964 56.4017 22.136 55.9112 22.3108C55.4207 22.4799 54.8541 22.5645 54.2114 22.5645ZM55.2431 20.0782C55.7731 20.0782 56.241 19.9739 56.6469 19.7653C57.0529 19.5511 57.3714 19.2636 57.6025 18.9028C57.8337 18.5419 57.9493 18.1332 57.9493 17.6765V16.2981C57.8365 16.3714 57.6815 16.4391 57.4842 16.5011C57.2925 16.5574 57.0754 16.611 56.833 16.6617C56.5906 16.7068 56.3481 16.7491 56.1057 16.7886C55.8633 16.8224 55.6434 16.8534 55.4461 16.8816C55.0233 16.9436 54.654 17.0423 54.3383 17.1776C54.0226 17.3129 53.7773 17.4961 53.6025 17.7273C53.4278 17.9528 53.3404 18.2347 53.3404 18.573C53.3404 19.0634 53.518 19.4383 53.8732 19.6977C54.234 19.9514 54.6906 20.0782 55.2431 20.0782Z" fill="#0F172A"/>
<path d="M164.622 22.5899C163.37 22.5899 162.29 22.3136 161.383 21.7611C160.481 21.203 159.784 20.425 159.294 19.4271C158.809 18.4235 158.567 17.2565 158.567 15.926C158.567 14.5955 158.809 13.4228 159.294 12.408C159.784 11.3876 160.466 10.5927 161.34 10.0233C162.22 9.44822 163.246 9.16069 164.419 9.16069C165.095 9.16069 165.763 9.27345 166.423 9.49896C167.082 9.72447 167.683 10.0909 168.224 10.5983C168.765 11.1001 169.197 11.7653 169.518 12.5941C169.839 13.4228 170 14.4433 170 15.6554V16.5011H159.987V14.7759H167.97C167.97 14.043 167.824 13.389 167.531 12.814C167.243 12.2389 166.832 11.7851 166.296 11.4524C165.766 11.1198 165.14 10.9535 164.419 10.9535C163.624 10.9535 162.936 11.1508 162.355 11.5455C161.78 11.9345 161.338 12.4419 161.027 13.0677C160.717 13.6935 160.562 14.3644 160.562 15.0804V16.2305C160.562 17.2114 160.731 18.043 161.07 18.7252C161.414 19.4017 161.89 19.9176 162.499 20.2727C163.108 20.6223 163.815 20.7971 164.622 20.7971C165.146 20.7971 165.619 20.7238 166.042 20.5772C166.471 20.425 166.84 20.1994 167.15 19.9006C167.46 19.5962 167.7 19.2185 167.869 18.7675L169.797 19.3087C169.594 19.9627 169.253 20.5377 168.774 21.0338C168.295 21.5243 167.703 21.9077 166.998 22.1839C166.293 22.4546 165.501 22.5899 164.622 22.5899Z" fill="#0F172A"/>
<path d="M155.934 12.2389L154.142 12.7463C154.029 12.4475 153.863 12.1572 153.643 11.8753C153.428 11.5878 153.135 11.351 152.763 11.1649C152.391 10.9789 151.915 10.8858 151.334 10.8858C150.539 10.8858 149.877 11.0691 149.347 11.4355C148.822 11.7963 148.56 12.2558 148.56 12.814C148.56 13.3101 148.741 13.7019 149.101 13.9894C149.462 14.277 150.026 14.5166 150.793 14.7083L152.721 15.1818C153.882 15.4637 154.748 15.895 155.317 16.4757C155.887 17.0508 156.171 17.7921 156.171 18.6998C156.171 19.444 155.957 20.1092 155.529 20.6956C155.106 21.2819 154.514 21.7442 153.753 22.0825C152.992 22.4207 152.106 22.5899 151.097 22.5899C149.772 22.5899 148.676 22.3023 147.808 21.7273C146.939 21.1522 146.39 20.3122 146.159 19.2072L148.053 18.7336C148.233 19.4327 148.574 19.957 149.076 20.3066C149.583 20.6561 150.246 20.8309 151.063 20.8309C151.994 20.8309 152.732 20.6336 153.279 20.2389C153.832 19.8386 154.108 19.3594 154.108 18.8013C154.108 18.3503 153.95 17.9725 153.634 17.6681C153.319 17.358 152.834 17.1269 152.18 16.9746L150.015 16.4672C148.825 16.1854 147.951 15.7484 147.393 15.1565C146.841 14.5589 146.564 13.8119 146.564 12.9154C146.564 12.1825 146.77 11.5342 147.182 10.9704C147.599 10.4066 148.166 9.96407 148.882 9.64272C149.603 9.32137 150.421 9.16069 151.334 9.16069C152.619 9.16069 153.629 9.44258 154.361 10.0064C155.1 10.5701 155.624 11.3143 155.934 12.2389Z" fill="#0F172A"/>
<path d="M132.222 27.1903V9.32982H134.15V11.3932H134.387C134.533 11.1677 134.736 10.8802 134.996 10.5307C135.261 10.1755 135.638 9.85977 136.129 9.58352C136.625 9.30163 137.296 9.16069 138.142 9.16069C139.235 9.16069 140.199 9.43412 141.034 9.98099C141.868 10.5278 142.519 11.303 142.987 12.3066C143.455 13.3101 143.689 14.494 143.689 15.8584C143.689 17.234 143.455 18.4264 142.987 19.4355C142.519 20.4391 141.871 21.2171 141.042 21.7696C140.213 22.3164 139.258 22.5899 138.175 22.5899C137.341 22.5899 136.673 22.4517 136.171 22.1755C135.669 21.8936 135.283 21.5751 135.013 21.2199C134.742 20.8591 134.533 20.5603 134.387 20.3235H134.218V27.1903H132.222ZM134.184 15.8245C134.184 16.8055 134.328 17.6709 134.615 18.4207C134.903 19.1649 135.323 19.7484 135.875 20.1713C136.428 20.5885 137.104 20.7971 137.905 20.7971C138.739 20.7971 139.435 20.5772 139.994 20.1374C140.557 19.692 140.98 19.0944 141.262 18.3446C141.55 17.5892 141.693 16.7491 141.693 15.8245C141.693 14.9112 141.552 14.0881 141.271 13.3552C140.994 12.6166 140.574 12.0331 140.011 11.6047C139.452 11.1706 138.75 10.9535 137.905 10.9535C137.093 10.9535 136.411 11.1593 135.858 11.5708C135.306 11.9768 134.889 12.5462 134.607 13.2791C134.325 14.0064 134.184 14.8548 134.184 15.8245Z" fill="#0F172A"/>
<path d="M122.626 22.6237C121.803 22.6237 121.056 22.4687 120.385 22.1586C119.714 21.8429 119.181 21.389 118.786 20.7971C118.392 20.1994 118.195 19.4778 118.195 18.6321C118.195 17.888 118.341 17.2847 118.634 16.8224C118.927 16.3545 119.319 15.988 119.81 15.7231C120.3 15.4581 120.841 15.2608 121.433 15.1311C122.031 14.9958 122.631 14.8887 123.235 14.8097C124.024 14.7083 124.664 14.6321 125.154 14.5814C125.65 14.525 126.011 14.432 126.237 14.3023C126.468 14.1727 126.584 13.9472 126.584 13.6258V13.5582C126.584 12.7238 126.355 12.0754 125.899 11.6131C125.447 11.1508 124.763 10.9197 123.844 10.9197C122.891 10.9197 122.144 11.1283 121.603 11.5455C121.061 11.9627 120.681 12.408 120.461 12.8816L118.567 12.2051C118.905 11.4158 119.356 10.8013 119.92 10.3615C120.489 9.91615 121.109 9.60607 121.78 9.4313C122.457 9.25089 123.122 9.16069 123.776 9.16069C124.193 9.16069 124.672 9.21143 125.214 9.31291C125.76 9.40875 126.288 9.60889 126.795 9.91333C127.308 10.2178 127.734 10.6773 128.072 11.2918C128.41 11.9063 128.579 12.7294 128.579 13.7611V22.3193H126.584V20.5603H126.482C126.347 20.8422 126.121 21.1438 125.805 21.4651C125.49 21.7865 125.07 22.0599 124.545 22.2854C124.021 22.5109 123.381 22.6237 122.626 22.6237ZM122.93 20.8309C123.72 20.8309 124.385 20.6758 124.926 20.3658C125.473 20.0557 125.884 19.6554 126.161 19.1649C126.443 18.6744 126.584 18.1586 126.584 17.6173V15.7907C126.499 15.8922 126.313 15.9852 126.025 16.0698C125.743 16.1487 125.416 16.2192 125.044 16.2812C124.678 16.3376 124.32 16.3883 123.97 16.4334C123.626 16.4729 123.347 16.5067 123.133 16.5349C122.615 16.6025 122.13 16.7125 121.679 16.8647C121.233 17.0113 120.872 17.234 120.596 17.5328C120.326 17.8259 120.19 18.2262 120.19 18.7336C120.19 19.4271 120.447 19.9514 120.96 20.3066C121.479 20.6561 122.135 20.8309 122.93 20.8309Z" fill="#0F172A"/>
<path d="M106.869 14.5053V22.3193H104.873V9.32982H106.801V11.3594H106.97C107.275 10.6998 107.737 10.1699 108.357 9.76957C108.977 9.36365 109.778 9.16069 110.759 9.16069C111.638 9.16069 112.408 9.3411 113.068 9.70192C113.727 10.0571 114.24 10.5983 114.607 11.3256C114.973 12.0472 115.156 12.9605 115.156 14.0656V22.3193H113.161V14.2009C113.161 13.1804 112.896 12.3855 112.366 11.8161C111.836 11.241 111.109 10.9535 110.184 10.9535C109.547 10.9535 108.977 11.0916 108.476 11.3679C107.98 11.6441 107.588 12.0472 107.3 12.5772C107.013 13.1071 106.869 13.7498 106.869 14.5053Z" fill="#0F172A"/>
<path d="M92.9027 27.1903C92.5645 27.1903 92.2629 27.1621 91.9979 27.1057C91.7329 27.0549 91.5497 27.0042 91.4482 26.9535L91.9556 25.1945C92.4405 25.3185 92.8689 25.3636 93.241 25.3298C93.6131 25.296 93.9429 25.1296 94.2304 24.8308C94.5236 24.5377 94.7914 24.0613 95.0338 23.4017L95.4059 22.3869L90.6025 9.32979H92.7674L96.3531 19.6807H96.4884L100.074 9.32979H102.239L96.7252 24.2135C96.4771 24.8844 96.1698 25.4397 95.8034 25.8795C95.4369 26.3249 95.0113 26.6547 94.5264 26.8689C94.0472 27.0831 93.506 27.1903 92.9027 27.1903Z" fill="#0F172A"/>
<path d="M88.3763 12.2389L86.5835 12.7463C86.4707 12.4475 86.3044 12.1572 86.0846 11.8753C85.8703 11.5878 85.5772 11.351 85.2051 11.1649C84.833 10.9789 84.3566 10.8858 83.7759 10.8858C82.981 10.8858 82.3185 11.0691 81.7886 11.4355C81.2643 11.7963 81.0021 12.2558 81.0021 12.814C81.0021 13.3101 81.1825 13.7019 81.5433 13.9894C81.9042 14.277 82.4679 14.5166 83.2347 14.7083L85.1628 15.1818C86.3242 15.4637 87.1896 15.895 87.759 16.4757C88.3284 17.0508 88.6131 17.7921 88.6131 18.6998C88.6131 19.444 88.3989 20.1092 87.9704 20.6956C87.5476 21.2819 86.9556 21.7442 86.1945 22.0825C85.4334 22.4207 84.5483 22.5899 83.5391 22.5899C82.2142 22.5899 81.1177 22.3023 80.2495 21.7273C79.3812 21.1522 78.8316 20.3122 78.6004 19.2072L80.4947 18.7336C80.6751 19.4327 81.0162 19.957 81.518 20.3066C82.0254 20.6561 82.6878 20.8309 83.5053 20.8309C84.4355 20.8309 85.1741 20.6336 85.7209 20.2389C86.2734 19.8386 86.5497 19.3594 86.5497 18.8013C86.5497 18.3503 86.3918 17.9725 86.0761 17.6681C85.7604 17.358 85.2755 17.1269 84.6216 16.9746L82.4567 16.4672C81.2671 16.1854 80.3932 15.7484 79.8351 15.1565C79.2826 14.5589 79.0063 13.8119 79.0063 12.9154C79.0063 12.1825 79.2121 11.5342 79.6237 10.9704C80.0409 10.4066 80.6075 9.96407 81.3235 9.64272C82.0451 9.32137 82.8626 9.16069 83.7759 9.16069C85.0613 9.16069 86.0705 9.44258 86.8034 10.0064C87.5419 10.5701 88.0662 11.3143 88.3763 12.2389Z" fill="#0F172A"/>
<defs>
<linearGradient id="paint0_linear_1_59" x1="9.34375" y1="14.5" x2="31.0938" y2="14.5" gradientUnits="userSpaceOnUse">
<stop stop-color="#3B82F6" stop-opacity="0.7"/>
<stop offset="1" stop-color="#0EA5E9" stop-opacity="0.9"/>
</linearGradient>
</defs>
</svg>
